<?xml version="1.0" encoding="UTF-8" standalone="no"?>
<!-- Created with Inkscape (http://www.inkscape.org/) -->

<svg
   xmlns:dc="http://purl.org/dc/elements/1.1/"
   xmlns:cc="http://creativecommons.org/ns#"
   xmlns:rdf="http://www.w3.org/1999/02/22-rdf-syntax-ns#"
   xmlns:svg="http://www.w3.org/2000/svg"
   xmlns="http://www.w3.org/2000/svg"
   xmlns:sodipodi="http://sodipodi.sourceforge.net/DTD/sodipodi-0.dtd"
   xmlns:inkscape="http://www.inkscape.org/namespaces/inkscape"
   id="svg2"
   version="1.1"
   inkscape:version="0.91 r13725"
   width="500"
   height="672"
   xml:space="preserve"
   sodipodi:docname="logo2.svg"><metadata
     id="metadata8"><rdf:RDF><cc:Work
         rdf:about=""><dc:format>image/svg+xml</dc:format><dc:type
           rdf:resource="http://purl.org/dc/dcmitype/StillImage" /><dc:title></dc:title></cc:Work></rdf:RDF></metadata><defs
     id="defs6"><clipPath
       clipPathUnits="userSpaceOnUse"
       id="clipPath20"><path
         d="M 8000,0 0,0 0,8000 8000,8000 8000,0 M 3928.76,708.82 c 163.91,0 338.31,-34.101 494.58,-105.441 134.47,-61.391 333.95,-88.109 533.71,-88.109 255.81,0 512.07,43.812 632.96,114.761 139.5,81.867 287.99,109.938 420.96,109.938 159.32,0 296.36,-40.289 369.04,-76.629 172.21,-86.11 338.87,-123.442 582.69,-123.449 74.46,0 156.09,3.48 247.31,10.121 0,0 -60.01,314.988 -66.67,601.658 -6.66,286.67 100,788.33 20,1288.33 l -6346.664,0 0,0 c 0,0 16.156,-65.22 19.949,-180 l 0,0 c 2.652,-80.3 -0.742,-184.85 -19.949,-308.34 -46.664,-300 -118.528,-914.16 20.734,-1360.828 0,0 58.524,-3.07 146.563,-3.07 173.407,0 461.407,11.91 642.697,82.66 126.21,49.25 255.29,72.879 385.86,72.879 152.23,0 306.5,-32.09 460.81,-93.102 161.16,-63.711 410.01,-97.949 630.09,-97.949 171.39,0 325.33,20.762 406.91,64.531 112.63,60.43 260.67,92.039 418.42,92.039"
         id="path22"
         inkscape:connector-curvature="0" /></clipPath><radialGradient
       fx="0"
       fy="0"
       cx="0"
       cy="0"
       r="1"
       gradientUnits="userSpaceOnUse"
       gradientTransform="matrix(400,0,0,-400,400,400)"
       spreadMethod="pad"
       id="radialGradient24"><stop
         style="stop-opacity:1;stop-color:#edf9f9"
         offset="0"
         id="stop26" /><stop
         style="stop-opacity:1;stop-color:#c7eced"
         offset="1"
         id="stop28" /></radialGradient><clipPath
       clipPathUnits="userSpaceOnUse"
       id="clipPath104"><path
         d="m 816.676,2440 c 0,0 46.664,-188.34 0,-488.34 -46.664,-300 -118.528,-914.16 20.734,-1360.828 0,0 515.93,-27.082 789.26,79.59 273.34,106.668 560,93.117 846.67,-20.223 286.67,-113.328 850.66,-133.398 1037,-33.418 229.66,123.219 606.33,126.598 913,-13.402 306.67,-140 951.39,-99.699 1166.67,26.652 306.66,179.969 656.67,99.969 790,33.309 224.81,-112.399 440.09,-141.699 830,-113.328 0,0 -60.01,314.988 -66.67,601.658 -6.66,286.67 100,788.33 20,1288.33 l -6346.664,0"
         id="path106"
         inkscape:connector-curvature="0" /></clipPath><clipPath
       clipPathUnits="userSpaceOnUse"
       id="clipPath130"><path
         d="m 5287.91,6371.84 c -481.36,353.33 -1981.32,353.33 -2462.68,0 -509.9,-374.28 -708.56,-1147.68 -101.89,-1774.35 0,0 -491.62,-900.41 181.71,-1513.75 C 3259.78,2760.63 3560,2710.68 4050,2710.02 l 0,-0.03 c 0,0 3.32,0.01 5,0.02 1.68,-0.01 -5,-0.02 5,-0.02 l 0,0.03 c 480,0.66 796.8,50.19 1151.52,373.3 673.34,613.34 179.14,1514.17 179.14,1514.17 606.67,626.67 407.15,1400.07 -102.75,1774.35"
         id="path132"
         inkscape:connector-curvature="0" /></clipPath></defs><sodipodi:namedview
     pagecolor="#ffffff"
     bordercolor="#666666"
     borderopacity="1"
     objecttolerance="10"
     gridtolerance="10"
     guidetolerance="10"
     inkscape:pageopacity="0"
     inkscape:pageshadow="2"
     inkscape:window-width="1366"
     inkscape:window-height="706"
     id="namedview4"
     showgrid="false"
     inkscape:zoom="0.6675088"
     inkscape:cx="72.95551"
     inkscape:cy="374.8772"
     inkscape:window-x="-8"
     inkscape:window-y="-8"
     inkscape:window-maximized="1"
     inkscape:current-layer="g10"
     width="524.41px"
     height="1259px" /><g
     id="g10"
     inkscape:groupmode="layer"
     inkscape:label="ink_ext_XXXXXX"
     transform="matrix(1.25,0,0,-1.25,0,672)"><path
       inkscape:connector-curvature="0"
       id="path124"
       style="fill:#fdffff;fill-opacity:1;fill-rule:nonzero;stroke:#41999c;stroke-opacity:1;stroke-width:7.30451202;stroke-miterlimit:4;stroke-dasharray:none"
       d="m 321.45291,393.89133 c -48.136,35.333 -198.132,35.333 -246.268,0 -50.99,-37.428 -70.856,-114.768 -10.189,-177.435 0,0 -49.162,-90.041 18.171,-151.375 35.473,-32.312 65.495,-37.306 114.495,-37.372 l 0,-0.003 c 0,0 0.332,10e-4 0.5,0.002 0.168,-0.001 -0.5,-0.002 0.5,-0.002 l 0,0.003 c 48,0.066 79.68,5.019 115.152,37.33 67.334,61.334 17.914,151.417 17.914,151.417 60.667,62.667 40.715,140.007 -10.275,177.435" /><g
       id="g126"
       transform="matrix(0.1,0,0,0.1,-207.33809,-243.29267)"
       style="fill:#fdffff;fill-opacity:1;stroke:#41999c;stroke-opacity:1;stroke-width:73045111839020347000000;stroke-miterlimit:4;stroke-dasharray:none"><g
         clip-path="url(#clipPath130)"
         id="g128"
         style="fill:#fdffff;fill-opacity:1;stroke:#41999c;stroke-opacity:1;stroke-width:73045111839020347000000;stroke-miterlimit:4;stroke-dasharray:none"><path
           inkscape:connector-curvature="0"
           id="path134"
           style="fill:#fdffff;fill-opacity:1;fill-rule:nonzero;stroke:#41999c;stroke-opacity:1;stroke-width:73045111839020347000000;stroke-miterlimit:4;stroke-dasharray:none"
           d="m 5065.38,3061.51 c 10,-29.89 19.85,-59.83 29.76,-89.75 l 0.2,-0.6 c -9.99,30.12 -19.97,60.24 -29.96,90.35" /><path
           inkscape:connector-curvature="0"
           id="path136"
           style="fill:#fdffff;fill-opacity:1;fill-rule:nonzero;stroke:#41999c;stroke-opacity:1;stroke-width:73045111839020347000000;stroke-miterlimit:4;stroke-dasharray:none"
           d="m 5114.84,2912.33 c -6.49,19.84 -13.14,39.62 -19.7,59.43 -32.23,96.89 -65.23,192.72 -106.19,286.55 -35.6,81.5 -73.04,162.21 -114.69,240.81 -60.01,113.23 -130.17,223.37 -209.47,323.88 -68.5,86.81 -156.11,171.64 -254.48,222.51 -117.41,60.71 -168.01,78.81 -299.18,102.07 -69.93,12.4 -145.96,5.93 -214.85,-9.29 -158.51,-35.01 -308.32,-121.47 -420.17,-238.84 -98.41,-103.28 -179.86,-212.71 -246.83,-338.09 -69.36,-129.86 -117.23,-260.46 -160.53,-400.11 -22.56,-72.78 -31.1,-154.26 -45.13,-229.8 -13.24,-71.33 -3.77,-137.38 11.71,-206.66 42.44,-190.02 230.89,-274.74 405.68,-204.05 30.34,12.27 54.36,24.53 79.13,39.3 2.42,-2.77 5.02,-5.4 7.51,-8.12 0.46,-0.96 0.83,-1.94 1.3,-2.9 82.63,-169.44 264.38,-252.6 446.92,-224.94 85.78,13 166.26,54.27 234.1,112.49 122.85,-121.13 311.62,-177.79 478.6,-146.49 140.3,26.31 266.66,109.61 345.73,228.43 68.21,102.52 120.89,270.63 80.54,393.82" /><path
           inkscape:connector-curvature="0"
           id="path138"
           style="fill:#fdffff;fill-opacity:1;fill-rule:nonzero;stroke:#41999c;stroke-opacity:1;stroke-width:73045111839020347000000;stroke-miterlimit:4;stroke-dasharray:none"
           d="m 5095.34,2971.16 c 5.03,-15.18 10.07,-30.36 15.1,-45.54 -5.03,15.21 -10.06,30.39 -15.1,45.54" /><path
           inkscape:connector-curvature="0"
           id="path140"
           style="fill:#fdffff;fill-opacity:1;fill-rule:nonzero;stroke:#41999c;stroke-opacity:1;stroke-width:73045111839020347000000;stroke-miterlimit:4;stroke-dasharray:none"
           d="m 3744.11,3781.49 c -20.97,-4.34 -39.82,-14.09 -60.44,-19.23 -25.29,-6.32 -52.86,-0.76 -76.8,7.68 -23.86,8.42 -36.44,-23.01 -18.57,-37.49 50.24,-40.74 133.11,-59.32 182.89,-6.47 20.49,21.73 6.27,62.43 -27.08,55.51" /><path
           inkscape:connector-curvature="0"
           id="path142"
           style="fill:#fdffff;fill-opacity:1;fill-rule:nonzero;stroke:#41999c;stroke-opacity:1;stroke-width:73045111839020347000000;stroke-miterlimit:4;stroke-dasharray:none"
           d="m 4012.11,3948.05 c -33.65,2.45 -63.18,-18.62 -96.21,-24.32 -37.29,-6.44 -77.58,-3.77 -114.64,3.02 -17.14,3.14 -23.9,-22.04 -10.58,-30.72 40.03,-26.11 80.82,-40.81 128.99,-40.98 44.05,-0.17 98.51,12.31 116.92,55.79 7.14,16.86 -7.31,35.97 -24.48,37.21" /><path
           inkscape:connector-curvature="0"
           id="path144"
           style="fill:#fdffff;fill-opacity:1;fill-rule:nonzero;stroke:#41999c;stroke-opacity:1;stroke-width:73045111839020347000000;stroke-miterlimit:4;stroke-dasharray:none"
           d="m 4263.9,3782.65 c -73.89,-9.88 -137.03,-25.42 -212.29,-11.22 -22.06,4.16 -30.32,-28.13 -13.53,-39.31 72.36,-48.16 185.81,-81.34 253.89,-7.03 21.92,23.92 6.27,62.15 -28.07,57.56" /><path
           inkscape:connector-curvature="0"
           id="path146"
           style="fill:#fdffff;fill-opacity:1;fill-rule:nonzero;stroke:#41999c;stroke-opacity:1;stroke-width:73045111839020347000000;stroke-miterlimit:4;stroke-dasharray:none"
           d="m 4517.51,3595.5 c -21.82,-16.08 -38.79,-33.47 -65.67,-41.07 -26.63,-7.52 -53.05,-10.07 -80.52,-6.9 -16.72,1.93 -27.05,-23.95 -11.08,-32.16 64.43,-33.1 167.84,-39.04 208.04,35.77 18.45,34.34 -19.09,67.69 -50.77,44.36" /><path
           inkscape:connector-curvature="0"
           id="path148"
           style="fill:#fdffff;fill-opacity:1;fill-rule:nonzero;stroke:#41999c;stroke-opacity:1;stroke-width:73045111839020347000000;stroke-miterlimit:4;stroke-dasharray:none"
           d="m 4014.04,3551.87 c -75.36,-15.07 -142.06,-30.31 -217.05,-1.56 -23.28,8.93 -38.62,-24.48 -18.91,-38.19 71.34,-49.62 178.56,-69.57 256.14,-21.26 29.54,18.4 17.98,68.65 -20.18,61.01" /><path
           inkscape:connector-curvature="0"
           id="path150"
           style="fill:#fdffff;fill-opacity:1;fill-rule:nonzero;stroke:#41999c;stroke-opacity:1;stroke-width:73045111839020347000000;stroke-miterlimit:4;stroke-dasharray:none"
           d="m 3524.47,3459.57 c -27.65,-1.97 -51.22,-18.58 -78.78,-23.13 -33.59,-5.55 -64.59,5.37 -93.55,21.76 -20.61,11.67 -46.61,-13.83 -28.55,-32.67 32.07,-33.46 68.59,-52.29 114.57,-58.58 40.11,-5.48 95.82,10.26 116.87,46.36 13.96,23.96 -4.54,48.13 -30.56,46.26" /><path
           inkscape:connector-curvature="0"
           id="path152"
           style="fill:#fdffff;fill-opacity:1;fill-rule:nonzero;stroke:#41999c;stroke-opacity:1;stroke-width:73045111839020347000000;stroke-miterlimit:4;stroke-dasharray:none"
           d="m 3362.17,3108.83 c -35.71,-0.08 -73.41,3.77 -106.07,18.89 -20.84,9.66 -31.54,-20.8 -16.51,-33.33 34.22,-28.5 74.08,-41.74 118.24,-43.22 37.45,-1.25 41.36,57.74 4.34,57.66" /><path
           inkscape:connector-curvature="0"
           id="path154"
           style="fill:#fdffff;fill-opacity:1;fill-rule:nonzero;stroke:#41999c;stroke-opacity:1;stroke-width:73045111839020347000000;stroke-miterlimit:4;stroke-dasharray:none"
           d="m 3913.75,3083.42 c -35.2,-8.96 -67.75,-23.7 -103.85,-30.12 -38.28,-6.81 -79.76,-5.64 -118.35,-2.66 -24.12,1.88 -29.76,-31.64 -8.29,-40.21 80.16,-32.04 188.39,-48.61 259.23,14.07 24.18,21.41 4.77,67.43 -28.74,58.92" /><path
           inkscape:connector-curvature="0"
           id="path156"
           style="fill:#fdffff;fill-opacity:1;fill-rule:nonzero;stroke:#41999c;stroke-opacity:1;stroke-width:73045111839020347000000;stroke-miterlimit:4;stroke-dasharray:none"
           d="m 3819.21,3282.12 c -22.64,-8.05 -41.64,-21.91 -66.47,-22.99 -26.98,-1.16 -52.23,9.22 -75.15,22.25 -12.8,7.27 -29.37,-8.83 -17.84,-20.42 49.63,-49.92 129.25,-75.57 186.53,-19.42 20.77,20.35 -1.38,49.71 -27.07,40.58" /><path
           inkscape:connector-curvature="0"
           id="path158"
           style="fill:#fdffff;fill-opacity:1;fill-rule:nonzero;stroke:#41999c;stroke-opacity:1;stroke-width:73045111839020347000000;stroke-miterlimit:4;stroke-dasharray:none"
           d="m 4147.5,2895.62 c -24.94,-11.44 -48.65,-26.9 -75.28,-34.04 -32.1,-8.59 -68.27,-9.11 -101.28,-9.11 -11.56,-0.01 -19.58,-16.09 -7.87,-22.87 67.05,-38.84 175.38,-55.7 220.66,24.58 13.68,24.26 -9.35,53.79 -36.23,41.44" /><path
           inkscape:connector-curvature="0"
           id="path160"
           style="fill:#fdffff;fill-opacity:1;fill-rule:nonzero;stroke:#41999c;stroke-opacity:1;stroke-width:73045111839020347000000;stroke-miterlimit:4;stroke-dasharray:none"
           d="m 4276.64,3307.38 c -17.25,-8.5 -33,-18.46 -51.8,-23.28 -23.92,-6.11 -51.7,3 -72.7,14.1 -20.55,10.86 -47.01,-13.59 -28.55,-32.67 49.56,-51.23 148.05,-75.74 191.76,-2.43 15.13,25.36 -10.51,58.19 -38.71,44.28" /><path
           inkscape:connector-curvature="0"
           id="path162"
           style="fill:#fdffff;fill-opacity:1;fill-rule:nonzero;stroke:#41999c;stroke-opacity:1;stroke-width:73045111839020347000000;stroke-miterlimit:4;stroke-dasharray:none"
           d="m 4858.18,3034.23 c -24.72,-13.99 -46.78,-31.89 -73.33,-42.33 -30.39,-11.95 -61.77,-12.79 -93.91,-9.43 -14.89,1.55 -17.45,-18.86 -5.01,-24.29 69.32,-30.26 160.69,-34.57 206.5,36.87 13.81,21.52 -10.04,52.86 -34.25,39.18" /><path
           inkscape:connector-curvature="0"
           id="path164"
           style="fill:#fdffff;fill-opacity:1;fill-rule:nonzero;stroke:#41999c;stroke-opacity:1;stroke-width:73045111839020347000000;stroke-miterlimit:4;stroke-dasharray:none"
           d="m 4658.82,3241.55 c -30.52,-5.8 -55.39,-25.39 -85.77,-32.27 -34.64,-7.85 -70.47,-2.58 -105.56,-4.43 -15.64,-0.82 -19.01,-20.76 -8.65,-29.89 58.11,-51.2 193.66,-54.5 229.49,26.27 8.27,18.67 -7.7,44.48 -29.51,40.32" /><path
           inkscape:connector-curvature="0"
           id="path166"
           style="fill:#fdffff;fill-opacity:1;fill-rule:nonzero;stroke:#41999c;stroke-opacity:1;stroke-width:73045111839020347000000;stroke-miterlimit:4;stroke-dasharray:none"
           d="m 4794.69,3478.42 c -21.15,-1.82 -41.01,-9.09 -61.91,-12.73 -21.61,-3.76 -44.94,-2.47 -66.87,-3.8 -24.87,-1.51 -20.68,-34.78 -3.16,-42.94 46.55,-21.67 116.86,-30.68 156.37,9.37 20.93,21.19 4.19,52.56 -24.43,50.1" /><path
           inkscape:connector-curvature="0"
           id="path168"
           style="fill:#fdffff;fill-opacity:1;fill-rule:nonzero;stroke:#41999c;stroke-opacity:1;stroke-width:73045111839020347000000;stroke-miterlimit:4;stroke-dasharray:none"
           d="m 4582.14,3868.44 c -37.23,1.17 -72.73,-9.13 -110.44,-5.84 -26.33,2.29 -32.65,-34.84 -9.07,-44.03 43.87,-17.09 95.43,-29.18 136.24,0.04 20.25,14.5 6.62,49.1 -16.73,49.83" /><path
           inkscape:connector-curvature="0"
           id="path170"
           style="fill:#fdffff;fill-opacity:1;fill-rule:nonzero;stroke:#41999c;stroke-opacity:1;stroke-width:73045111839020347000000;stroke-miterlimit:4;stroke-dasharray:none"
           d="m 4341.27,4047.91 c -22.92,-8.34 -40.17,-28.36 -62.9,-38.33 -25.35,-11.12 -50.34,-11.66 -77.49,-7.89 -11.17,1.55 -17.99,-16.13 -7.38,-21.45 57.44,-28.73 161.15,-35.64 176.37,48.27 2.98,16.46 -16.07,23.96 -28.6,19.4" /></g></g><path
       inkscape:connector-curvature="0"
       id="path172"
       style="fill:#fdffff;fill-opacity:1;fill-rule:nonzero;stroke:#41999c;stroke-opacity:1;stroke-width:7.30451202;stroke-miterlimit:4;stroke-dasharray:none"
       d="m 198.31891,243.92733 c 0,0 -10.776,-21.553 -26.402,-24.247 0,0 26.402,-11.316 26.402,-33.946 0,22.63 26.403,33.946 26.403,33.946 -15.626,2.694 -26.403,24.247 -26.403,24.247" /><path
       inkscape:connector-curvature="0"
       id="path174"
       style="fill:#fdffff;fill-opacity:1;fill-rule:nonzero;stroke:#41999c;stroke-opacity:1;stroke-width:7.30451202;stroke-miterlimit:4;stroke-dasharray:none"
       d="m 192.12291,400.72733 -189.128,45.799 194.92,83.519 184.414,-82.441 -190.206,-46.877" /><path
       inkscape:connector-curvature="0"
       id="path176"
       style="fill:#fdffff;fill-opacity:1;fill-rule:nonzero;stroke:#41999c;stroke-opacity:1;stroke-width:7.30451202;stroke-miterlimit:4;stroke-dasharray:none"
       d="m 321.97791,446.70733 -247.859,0 c 0,0 4.214,-31.042 1.875,-51.674 0,0 70.668,29.057 121.668,-22.857 l 0,-0.817 c 0,0.14 0.366,0.27 0.5,0.409 0.134,-0.139 0.5,-0.269 0.5,-0.409 l 0,0.817 c 51,51.914 121.555,22.857 121.555,22.857 -2.339,20.632 1.761,51.674 1.761,51.674" /><path
       inkscape:connector-curvature="0"
       id="path178"
       style="fill:#fdffff;fill-opacity:1;fill-rule:nonzero;stroke:#41999c;stroke-opacity:1;stroke-width:7.30451202;stroke-miterlimit:4;stroke-dasharray:none"
       d="m 327.63791,439.20733 c 0,-3.662 -2.171,-6.5 -4.849,-6.5 l -249.746,0 c -2.679,0 -4.85,2.838 -4.85,6.5 0,3.663 2.171,6.5 4.85,6.5 l 249.746,0 c 2.678,0 4.849,-2.837 4.849,-6.5" /><path
       inkscape:connector-curvature="0"
       id="path180"
       style="fill:#fdffff;fill-opacity:1;fill-rule:nonzero;stroke:#41999c;stroke-opacity:1;stroke-width:7.30451202;stroke-miterlimit:4;stroke-dasharray:none"
       d="m 160.16191,52.70733 c -4.142,0 -7.5,-3.357 -7.5,-7.5 l 0,2 c 0,4.143 -3.358,7.5 -7.5,7.5 -4.142,0 -7.5,-3.357 -7.5,-7.5 l 0,-2 c 0,4.143 -3.358,7.5 -7.5,7.5 -4.142,0 -7.5,-3.357 -7.5,-7.5 l 0,-25 c 0,-4.143 3.358,-7.5 7.5,-7.5 4.142,0 7.5,3.357 7.5,7.5 l 0,-8 c 0,-4.143 3.358,-7.5 7.5,-7.5 4.142,0 7.5,3.357 7.5,7.5 l 0,8 c 0,-4.143 3.358,-7.5 7.5,-7.5 4.142,0 7.5,3.357 7.5,7.5 l 0,25 c 0,4.143 -3.358,7.5 -7.5,7.5" /><path
       inkscape:connector-curvature="0"
       id="path182"
       style="fill:#fdffff;fill-opacity:1;fill-rule:nonzero;stroke:#41999c;stroke-opacity:1;stroke-width:7.30451202;stroke-miterlimit:4;stroke-dasharray:none"
       d="m 254.16191,52.70733 c -4.143,0 -7.5,-3.357 -7.5,-7.5 l 0,2 c 0,4.143 -3.357,7.5 -7.5,7.5 -4.143,0 -7.5,-3.357 -7.5,-7.5 l 0,-2 c 0,4.143 -3.357,7.5 -7.5,7.5 -4.143,0 -7.5,-3.357 -7.5,-7.5 l 0,-25 c 0,-4.143 3.357,-7.5 7.5,-7.5 4.143,0 7.5,3.357 7.5,7.5 l 0,-8 c 0,-4.143 3.357,-7.5 7.5,-7.5 4.143,0 7.5,3.357 7.5,7.5 l 0,8 c 0,-4.143 3.357,-7.5 7.5,-7.5 4.143,0 7.5,3.357 7.5,7.5 l 0,25 c 0,4.143 -3.357,7.5 -7.5,7.5" /><path
       inkscape:connector-curvature="0"
       id="path184"
       style="fill:#fdffff;fill-opacity:1;fill-rule:nonzero;stroke:#41999c;stroke-opacity:1;stroke-width:7.30451202;stroke-miterlimit:4;stroke-dasharray:none"
       d="m 337.44391,173.70733 -33.782,-34.368 0,-87.436 c 0,0 15.5,-7.684 32.458,-1.325 l 29.244,38.805 0.298,84.324 -28.218,0" /><path
       inkscape:connector-curvature="0"
       id="path186"
       style="fill:#fdffff;fill-opacity:1;fill-rule:nonzero;stroke:#41999c;stroke-opacity:1;stroke-width:7.30451202;stroke-miterlimit:4;stroke-dasharray:none"
       d="m 308.66191,55.48033 c 0,0 16.577,-2.782 22.936,0 l -1.25,81.872 c 0,0 3.548,3.273 8.714,10.031 l 24.215,26.324 -22.653,0 -31.962,-35.163 0,-83.064" /><path
       inkscape:connector-curvature="0"
       id="path188"
       style="fill:#fdffff;fill-opacity:1;fill-rule:nonzero;stroke:#41999c;stroke-opacity:1;stroke-width:7.30451202;stroke-miterlimit:4;stroke-dasharray:none"
       d="m 64.99591,216.37333 c 0,0 40.646,-88 21.979,-132.667 -18.667,-44.667 -32,-16.667 -32.667,-4 0,0 -12,-4.666 -11.333,14.667 0,0 -14.666,21.333 -7.333,47.333 7.333,26 29.354,74.667 29.354,74.667" /><path
       inkscape:connector-curvature="0"
       id="path190"
       style="fill:#fdffff;fill-opacity:1;fill-rule:nonzero;stroke:#41999c;stroke-opacity:1;stroke-width:7.30451202;stroke-miterlimit:4;stroke-dasharray:none"
       d="m 331.72091,216.52233 c 0,0 -9.256,-101.28 24.896,-138.877 34.151,-37.596 37.492,-5.23 33.699,7.526 0,0 13.503,-0.396 6.049,18.483 0,0 7.002,26.243 -9.385,49.37 -16.386,23.126 -55.259,63.498 -55.259,63.498" /><path
       inkscape:connector-curvature="0"
       id="path192"
       style="fill:#fdffff;fill-opacity:1;fill-rule:nonzero;stroke:#41999c;stroke-opacity:1;stroke-width:7.30451202;stroke-miterlimit:4;stroke-dasharray:none"
       d="m 271.86891,353.93533 c -28.319,0 -51.275,-22.957 -51.275,-51.276 0,-28.319 22.956,-51.275 51.275,-51.275 28.318,0 51.275,22.956 51.275,51.275 0,28.319 -22.957,51.276 -51.275,51.276" /><path
       inkscape:connector-curvature="0"
       id="path194"
       style="fill:#fdffff;fill-opacity:1;fill-rule:nonzero;stroke:#41999c;stroke-opacity:1;stroke-width:7.30451202;stroke-miterlimit:4;stroke-dasharray:none"
       d="m 127.19391,353.93533 c -28.319,0 -51.275,-22.957 -51.275,-51.276 0,-28.319 22.956,-51.275 51.275,-51.275 28.319,0 51.276,22.956 51.276,51.275 0,28.319 -22.957,51.276 -51.276,51.276" /><path
       inkscape:connector-curvature="0"
       id="path196"
       style="fill:#fdffff;fill-opacity:1;fill-rule:nonzero;stroke:#41999c;stroke-opacity:1;stroke-width:7.30451202;stroke-miterlimit:4;stroke-dasharray:none"
       d="m 271.86891,251.38433 c -28.319,0 -51.275,22.956 -51.275,51.275 0,28.319 22.956,51.276 51.275,51.276 28.318,0 51.275,-22.957 51.275,-51.276 0,-28.319 -22.957,-51.275 -51.275,-51.275 z m -144.675,0 c -28.319,0 -51.275,22.956 -51.275,51.275 0,28.319 22.956,51.276 51.275,51.276 28.319,0 51.276,-22.957 51.276,-51.276 0,-28.319 -22.957,-51.275 -51.276,-51.275 z m 252.036,83.077 c -1.52,4.731 -6.589,7.334 -11.322,5.814 l -24.379,-7.836 c -11.679,28.071 -39.36,47.811 -71.66,47.811 -32.953,0 -61.088,-20.552 -72.338,-49.529 -11.249,28.977 -39.384,49.529 -72.337,49.529 -32.497,0 -60.312,-19.987 -71.865,-48.332 l -25.999,8.357 c -4.734,1.522 -9.801,-1.082 -11.322,-5.814 -1.521,-4.732 1.082,-9.801 5.814,-11.322 l 26.691,-8.579 c -0.598,-3.88 -0.91,-7.854 -0.91,-11.901 0,-42.852 34.739,-77.591 77.591,-77.591 32.953,0 61.088,20.553 72.337,49.53 11.25,-28.977 39.385,-49.53 72.338,-49.53 42.853,0 77.592,34.739 77.592,77.591 0,4.241 -0.354,8.399 -1.008,12.456 l 24.963,8.024 c 4.732,1.521 7.335,6.59 5.814,11.322" /><path
       inkscape:connector-curvature="0"
       id="path202"
       style="fill:#fdffff;fill-opacity:1;fill-rule:nonzero;stroke:#41999c;stroke-opacity:1;stroke-width:7.30451202;stroke-miterlimit:4;stroke-dasharray:none"
       d="m 48.52591,447.06533 c -4.849,2.155 -7.098,1.893 -10.507,0.539 0,0 10.238,-39.334 0,-83.518 -10.238,-44.183 -21.014,-107.765 0,-161.108 0,0 -9.012,-3.772 -12.049,-16.705 -3.038,-12.931 2.773,-28.581 -4.771,-35.046 0,0 4.427,-1.458 7.121,0.697 2.695,2.154 2.695,11.046 2.695,11.046 0,0 2.828,-7.814 -1.213,-11.451 0,0 8.082,-1.617 10.103,0.808 2.021,2.425 0.403,15.761 0.403,15.761 0,0 3.763,-10.366 1.338,-16.548 0,0 6.88,-1.233 9.843,3.212 2.964,4.446 -4.176,16.165 0,23.439 0,0 -1.197,-6.773 0.823,-12.026 2.021,-5.254 2.021,-8.807 0,-12.443 0,0 7.486,1.027 7.798,11.133 0.201,6.481 -4.404,7.451 -1.616,20.879 0.625,3.009 -0.808,14.28 -10.507,17.513 0,0 -12.931,27.48 -13.74,52.131 -0.809,24.651 3.046,61.079 7.274,81.632 4.85,23.573 18.051,67.219 7.005,110.055" /><path
       sodipodi:type="arc"
       style="fill:#fdffff;fill-opacity:1;stroke:#41999c;stroke-opacity:1;stroke-width:15.14957336;stroke-miterlimit:4;stroke-dasharray:none"
       id="path4233"
       sodipodi:cx="403.33685"
       sodipodi:cy="328.65466"
       sodipodi:rx="11.387712"
       sodipodi:ry="11.387712"
       d="m 414.72456,328.65466 a 11.387712,11.387712 0 0 1 -11.38771,11.38771 11.387712,11.387712 0 0 1 -11.38771,-11.38771 11.387712,11.387712 0 0 1 11.38771,-11.38771 11.387712,11.387712 0 0 1 11.38771,11.38771 z"
       transform="matrix(0.96738552,0,0,-0.96738552,-261.42032,612.01428)" /><path
       sodipodi:type="arc"
       style="fill:#fdffff;fill-opacity:1;stroke:#41999c;stroke-opacity:1;stroke-width:15.14957336;stroke-miterlimit:4;stroke-dasharray:none"
       id="path4233-5"
       sodipodi:cx="403.33685"
       sodipodi:cy="328.65466"
       sodipodi:rx="11.387712"
       sodipodi:ry="11.387712"
       d="m 414.72456,328.65466 a 11.387712,11.387712 0 0 1 -11.38771,11.38771 11.387712,11.387712 0 0 1 -11.38771,-11.38771 11.387712,11.387712 0 0 1 11.38771,-11.38771 11.387712,11.387712 0 0 1 11.38771,11.38771 z"
       transform="matrix(0.96738552,0,0,-0.96738552,-118.28303,611.5075)" /></g></svg>